{"title":"Malang - Full Video Song HD 720p - DHOOM 3 - Aamir Khan, Katrina","uid":9462698,"size":131632958,"categoryP":"video","categoryS":"music_videos","magnet":"?xt=urn:btih:91668118b007fd1cbdf17bf9138c02e47a03654b&amp;dn=Malang+-+Full+Video+Song+HD+720p+-+DHOOM+3+-+Aamir+Khan%2C+Katrina&amp;tr=udp%3A%2F%2Ftracker.openbittorrent.com%3A80&amp;tr=udp%3A%2F%2Fopen.demonii.com%3A1337&amp;tr=udp%3A%2F%2Ftracker.coppersurfer.tk%3A6969&amp;tr=udp%3A%2F%2Fexodus.desync.com%3A6969","seeders":1,"leechers":0,"uploader":"ashish.p","files":1,"time":1389383183,"description":"General\n\nComplete name : Malang - Full Video Song HD 720p - DHOOM 3 - Aamir Khan, Katrina Kaif -AshishRocks- { DAKU RG }\nFormat :\tMPEG-4\nFormat profile : Base Media / Version 2\nCodec ID : mp42\nFile size :\t126 MiB\nDuration :\t5mn 40s\nOverall bit rate mode : Variable\nOverall bit rate : 3 091 Kbps\nEncoded date : UTC 2014-01-09 17:10:36\nTagged date :\tUTC 2014-01-09 17:10:36\n\nVideo\n\nID :\t1\nFormat : AVC\nFormat/Info : Advanced Video Codec\nFormat profile : &lt;a class=&quot;__cf_email__&quot; href=&quot;/cdn-cgi/l/email-protection&quot; data-cfemail=&quot;bff7d6d8d7fff38c918e&quot;&gt;[email&amp;#160;protected]&lt;/a&gt;&lt;script cf-hash='f9e31' type=&quot;text/javascript&quot;&gt;\n/* &lt;![CDATA[ */!function(){try{var t=&quot;currentScript&quot;in document?document.currentScript:function(){for(var t=document.getElementsByTagName(&quot;script&quot;),e=t.length;e--;)if(t[e].getAttribute(&quot;cf-hash&quot;))return t[e]}();if(t&amp;&amp;t.previousSibling){var e,r,n,i,c=t.previousSibling,a=c.getAttribute(&quot;data-cfemail&quot;);if(a){for(e=&quot;&quot;,r=parseInt(a.substr(0,2),16),n=2;a.length-n;n+=2)i=parseInt(a.substr(n,2),16)^r,e+=String.fromCharCode(i);e=document.createTextNode(e),c.parentNode.replaceChild(e,c)}}}catch(u){}}();/* ]]&gt; */&lt;/script&gt;\nFormat settings, CABAC :\tYes\nFormat settings, ReFrames : 1 frame\nCodec ID : avc1\nCodec ID/Info : Advanced Video Coding\nDuration :\t5mn 40s\nBit rate :\t2 897 Kbps\nMaximum bit rate : 5 732 Kbps\nWidth : 1 280 pixels\nHeight : 720 pixels\nDisplay aspect ratio : 16:9\nFrame rate mode : Constant\nFrame rate : 24.000 fps\nColor space : YUV\nChroma subsampling : 4:2:0\nBit depth : 8 bits\nScan type : Progressive\nBits/(Pixel*Frame) :\t0.131\nStream size : 118 MiB (94%)\nTagged date :\tUTC 2014-01-09 17:10:44\n\nAudio\n\nID :\t2\nFormat :\tAAC\nFormat/Info : Advanced Audio Codec\nFormat profile : LC\nCodec ID : 40\nDuration :\t 5mn 40s\nBit rate mode :\tVariable\nBit rate : 192 Kbps\nMaximum bit rate : 204 Kbps\nChannel(s) : 2 channels\nChannel positions :\tFront: L R\nSampling rate : 44.1 KHz\nCompression mode : Lossy\nStream size : 7.80 MiB (6%)\nEncoded date : UTC 2014-01-09 17:10:41\nTagged date :\tUTC 2014-01-09 17:10:44","torrent":{"xt":"urn:btih:91668118b007fd1cbdf17bf9138c02e47a03654b","amp;dn":"Malang+-+Full+Video+Song+HD+720p+-+DHOOM+3+-+Aamir+Khan%2C+Katrina","amp;tr":["udp%3A%2F%2Ftracker.openbittorrent.com%3A80","udp%3A%2F%2Fopen.demonii.com%3A1337","udp%3A%2F%2Ftracker.coppersurfer.tk%3A6969","udp%3A%2F%2Fexodus.desync.com%3A6969"],"infoHash":"91668118b007fd1cbdf17bf9138c02e47a03654b","infoHashBuffer":{"type":"Buffer","data":[145,102,129,24,176,7,253,28,189,241,123,249,19,140,2,228,122,3,101,75]},"announce":[],"urlList":[]}}